<?xml version="1.0" encoding="iso-8859-1"?>
<!-- Generator: Adobe Illustrator 19.0.0, SVG Export Plug-In . SVG Version: 6.00 Build 0)  -->
<svg version="1.1" id="Capa_1" xmlns="http://www.w3.org/2000/svg" xmlns:xlink="http://www.w3.org/1999/xlink" x="0px" y="0px"
	 viewBox="0 0 512 512" style="enable-background:new 0 0 512 512;" xml:space="preserve">
<path style="fill:#265D77;" d="M131.517,386.196c12.293-11.361,20.008-27.606,20.008-45.626c0-34.267-27.878-62.146-62.145-62.146
	c-34.268,0-62.146,27.878-62.146,62.146c0,18.02,7.716,34.265,20.008,45.626C19.148,401.278,0,430.943,0,465v15h178.759v-15
	C178.759,430.944,159.611,401.279,131.517,386.196z"/>
<path style="fill:#132F3B;" d="M464.758,386.196c12.293-11.361,20.008-27.606,20.008-45.626c0-34.267-27.878-62.146-62.146-62.146
	c-34.267,0-62.146,27.878-62.146,62.146c0,18.02,7.716,34.265,20.008,45.626C352.388,401.278,333.24,430.944,333.24,465v15H512v-15
	C512,430.943,492.852,401.279,464.758,386.196z"/>
<path style="fill:#FF7B00;" d="M300.88,356.033c21.452-14.468,35.587-38.993,35.587-66.758c0-44.37-36.097-80.467-80.467-80.467
	s-80.467,36.097-80.467,80.467c0,27.765,14.135,52.29,35.587,66.758c-43.432,17.752-74.117,60.457-74.117,110.201V480h237.994
	v-13.766C374.997,416.49,344.312,373.785,300.88,356.033z"/>
<g>
	
		<rect x="146.452" y="129.373" transform="matrix(-0.6411 0.7674 -0.7674 -0.6411 384.1178 130.9067)" style="fill:#FFCE2D;" width="29.999" height="51.785"/>
	
		<rect x="107.843" y="200.997" transform="matrix(0.9247 0.3806 -0.3806 0.9247 91.7614 -32.0808)" style="fill:#FFCE2D;" width="38.322" height="30.002"/>
</g>
<g>
	
		<rect x="324.645" y="140.252" transform="matrix(-0.7674 0.6412 -0.6412 -0.7674 719.0821 49.6294)" style="fill:#FFAB2D;" width="51.788" height="30.001"/>
	
		<rect x="365.86" y="201.014" transform="matrix(-0.9247 0.3806 -0.3806 -0.9247 823.2801 269.2436)" style="fill:#FFAB2D;" width="38.322" height="30.002"/>
</g>
<polygon style="fill:#4BBAED;" points="293.569,74.536 271,94.597 271,32 241,32 241,94.597 218.431,74.536 198.5,96.958 
	256,148.069 313.499,96.958 "/>
<path style="fill:#FF4F19;" d="M300.88,356.033c21.452-14.468,35.587-38.993,35.587-66.758c0-44.37-36.097-80.467-80.467-80.467V480
	h118.997v-13.766C374.997,416.49,344.312,373.785,300.88,356.033z"/>
<polygon style="fill:#388CB2;" points="293.569,74.536 271,94.597 271,32 256,32 256,148.069 313.499,96.958 "/>
<g>
</g>
<g>
</g>
<g>
</g>
<g>
</g>
<g>
</g>
<g>
</g>
<g>
</g>
<g>
</g>
<g>
</g>
<g>
</g>
<g>
</g>
<g>
</g>
<g>
</g>
<g>
</g>
<g>
</g>
</svg>
